<?xml version="1.0" encoding="UTF-8" ?>
<!DOCTYPE svg PUBLIC "-//W3C//DTD SVG 1.1//EN" "http://www.w3.org/Graphics/SVG/1.1/DTD/svg11.dtd">
<svg width="237pt" height="237pt" viewBox="0 0 1500 1500" version="1.1" xmlns="http://www.w3.org/2000/svg">
<g id="#001489ff">
<path fill="#001489" opacity="1.00" d=" M 730.97 0.00 L 769.01 0.00 C 853.99 2.23 938.64 18.61 1018.02 49.13 C 1096.54 79.17 1169.97 122.47 1234.10 176.85 C 1291.06 225.14 1341.01 281.76 1381.39 344.60 C 1424.57 411.82 1456.97 485.98 1476.79 563.38 C 1490.95 618.33 1498.46 674.91 1500.00 731.61 L 1500.00 769.02 C 1497.69 857.35 1480.06 945.33 1447.20 1027.39 C 1420.59 1094.24 1384.34 1157.26 1339.77 1213.75 C 1294.17 1271.51 1240.20 1322.68 1179.93 1364.92 C 1112.91 1411.87 1038.10 1447.68 959.53 1470.53 C 897.66 1488.60 833.43 1498.21 769.03 1500.00 L 730.97 1500.00 C 642.92 1497.69 555.22 1480.17 473.37 1447.51 C 403.79 1419.91 338.35 1381.84 280.07 1334.85 C 221.10 1287.27 169.17 1230.92 126.91 1168.01 C 60.84 1069.75 18.46 955.61 4.93 837.95 C 2.21 815.07 0.79 792.07 0.00 769.06 L 0.00 730.97 C 1.18 692.42 4.84 653.93 11.75 615.97 C 30.32 512.55 71.22 413.26 130.57 326.57 C 173.37 264.10 225.71 208.22 285.04 161.18 C 376.09 89.03 484.21 38.57 598.02 15.22 C 641.76 6.13 686.33 1.33 730.97 0.00 M 710.65 17.84 C 658.33 20.63 606.30 29.02 555.79 42.93 C 443.39 73.73 338.80 132.16 253.25 211.25 C 159.84 297.24 89.15 407.78 50.88 528.89 C 20.67 624.06 10.41 725.45 20.59 824.76 C 32.58 944.16 74.86 1060.31 142.22 1159.60 C 184.78 1222.62 237.19 1278.96 296.92 1326.02 C 360.26 1375.97 431.85 1415.46 507.99 1442.13 C 596.86 1473.36 691.83 1486.97 785.89 1482.33 C 876.34 1478.00 965.94 1456.65 1048.57 1419.59 C 1119.00 1388.09 1184.34 1345.31 1241.53 1293.53 C 1299.96 1240.67 1349.86 1178.39 1388.65 1109.80 C 1429.13 1038.33 1457.41 959.95 1471.80 879.08 C 1489.77 778.53 1486.51 674.24 1462.08 575.06 C 1442.26 494.27 1408.39 416.97 1362.56 347.55 C 1321.46 285.19 1270.84 229.11 1212.95 181.91 C 1139.11 121.53 1053.40 75.69 962.09 48.10 C 880.89 23.47 795.36 13.29 710.65 17.84 Z" />
<path fill="#001489" opacity="1.00" d=" M 767.40 62.24 C 781.83 56.87 797.88 57.78 812.57 61.59 C 818.40 63.03 823.80 65.67 829.14 68.34 C 829.88 66.47 830.61 64.60 831.29 62.71 C 833.41 62.62 835.77 62.00 837.73 63.13 C 838.55 64.61 838.14 66.37 838.27 67.99 C 838.32 80.35 839.85 92.67 839.90 105.02 C 837.91 105.49 835.91 105.96 833.94 106.46 C 833.24 105.69 832.70 104.83 832.33 103.89 C 829.07 91.31 821.40 79.56 810.25 72.64 C 800.69 66.77 788.10 65.22 777.77 69.98 C 768.86 74.09 763.16 82.90 760.10 91.93 C 754.92 107.75 755.31 125.32 760.88 140.98 C 764.53 151.52 772.11 160.75 782.07 165.87 C 790.09 169.89 799.46 169.56 808.06 167.93 C 816.15 166.31 824.04 162.83 830.06 157.09 C 832.12 155.22 833.53 152.65 836.03 151.28 C 837.64 152.78 839.20 154.33 840.69 155.96 C 829.98 171.91 811.47 182.97 792.03 182.97 C 782.02 182.77 771.86 181.47 762.57 177.60 C 749.92 172.12 739.10 161.93 733.86 149.07 C 726.98 132.98 726.66 114.26 732.67 97.85 C 738.63 81.90 751.27 68.16 767.40 62.24 Z" />
<path fill="#001489" opacity="1.00" d=" M 547.82 88.62 C 558.82 84.61 569.72 80.34 580.58 75.96 C 582.53 77.90 583.28 80.57 584.08 83.13 C 580.93 84.85 577.36 85.61 574.21 87.31 C 572.43 88.77 573.43 91.29 574.02 93.09 C 584.64 121.65 595.70 150.06 606.63 178.50 C 607.58 180.62 608.73 183.45 611.18 184.01 C 614.31 183.32 617.24 181.94 620.23 180.81 C 622.60 182.43 622.91 185.45 623.72 187.97 C 621.29 189.29 618.65 190.10 616.03 190.91 C 601.71 195.78 587.59 201.20 573.62 206.97 C 571.76 205.00 571.12 202.33 570.21 199.87 C 573.83 197.59 578.16 196.88 581.93 194.91 C 584.08 193.85 583.06 190.96 582.58 189.17 C 572.56 159.50 561.38 130.23 550.50 100.87 C 549.04 136.49 547.26 172.09 546.22 207.72 C 545.97 210.45 546.12 213.88 543.64 215.67 C 541.61 216.43 539.76 214.98 538.42 213.62 C 526.43 200.91 514.41 188.22 502.42 175.51 C 489.63 161.70 477.04 147.70 463.98 134.13 C 472.15 158.19 480.58 182.18 490.53 205.56 C 493.18 211.74 495.76 218.59 501.57 222.52 C 505.25 225.03 509.09 221.47 512.83 220.89 C 515.50 221.94 515.53 225.51 516.25 227.91 C 510.97 230.45 505.17 231.62 499.76 233.84 C 491.49 236.59 483.63 240.42 475.37 243.15 C 474.05 240.90 473.12 238.45 472.49 235.93 C 475.44 234.32 478.93 233.76 481.73 231.88 C 485.37 227.32 483.27 221.03 482.10 215.93 C 475.49 192.78 468.25 169.79 459.38 147.40 C 457.42 142.83 456.38 136.94 451.60 134.42 C 447.52 133.07 443.62 135.76 439.87 137.03 C 437.26 135.52 436.92 132.31 436.27 129.67 C 448.56 125.12 461.17 121.32 473.14 115.92 C 475.60 114.87 478.97 113.24 481.05 115.89 C 499.95 137.46 519.65 158.32 538.65 179.82 C 540.01 150.57 541.08 121.31 541.89 92.05 C 543.29 90.13 545.73 89.50 547.82 88.62 Z" />
<path fill="#001489" opacity="1.00" d=" M 940.44 90.54 C 954.50 88.15 968.83 91.66 981.69 97.32 C 999.38 104.98 1012.53 121.94 1016.10 140.83 C 1018.62 153.77 1016.70 167.36 1011.60 179.45 C 1003.76 197.62 986.59 211.30 967.20 215.10 C 955.10 217.41 942.58 215.24 931.13 211.09 C 917.67 206.21 905.42 197.62 896.87 186.09 C 887.61 172.49 885.90 154.81 889.67 139.07 C 895.23 114.90 916.03 94.94 940.44 90.54 M 954.25 101.20 C 939.60 104.42 929.21 116.89 922.78 129.73 C 917.22 141.60 914.25 154.86 914.97 167.98 C 915.69 179.03 919.81 190.28 928.11 197.88 C 935.74 205.08 947.62 207.05 957.32 203.25 C 965.00 200.33 971.12 194.40 975.93 187.90 C 986.67 173.25 992.55 154.71 990.37 136.52 C 989.03 126.15 985.07 115.81 977.76 108.17 C 971.90 101.90 962.57 99.14 954.25 101.20 Z" />
<path fill="#001489" opacity="1.00" d=" M 1093.13 156.90 C 1094.09 154.72 1095.60 152.85 1097.03 150.95 C 1108.71 158.84 1120.10 167.23 1132.03 174.80 C 1135.25 177.13 1139.08 178.66 1141.90 181.52 C 1141.44 183.93 1139.92 186.29 1137.85 187.60 C 1133.44 186.36 1130.42 182.29 1126.02 180.97 C 1123.81 181.51 1122.77 183.79 1121.49 185.43 C 1102.97 211.85 1084.60 238.38 1067.17 265.53 C 1076.20 271.62 1085.08 277.99 1094.66 283.22 C 1098.81 285.54 1103.71 284.16 1108.03 283.06 C 1115.14 281.01 1121.85 277.80 1128.23 274.08 C 1130.73 272.22 1132.28 275.68 1133.58 277.26 C 1133.42 277.85 1133.10 279.05 1132.95 279.65 C 1124.22 287.31 1115.60 295.10 1107.10 303.01 C 1081.35 284.89 1055.38 267.04 1028.99 249.86 C 1029.97 247.41 1031.40 245.17 1033.13 243.16 C 1036.56 244.88 1039.44 247.63 1043.11 248.88 C 1045.02 249.43 1046.25 247.52 1047.20 246.22 C 1064.76 220.70 1082.77 195.48 1099.37 169.32 C 1100.31 167.71 1101.38 165.98 1101.14 164.02 C 1099.14 160.92 1094.47 160.32 1093.13 156.90 Z" />
<path fill="#001489" opacity="1.00" d=" M 333.86 196.10 C 334.57 194.25 334.66 192.10 335.91 190.51 C 337.96 190.27 339.41 191.92 341.00 192.93 C 356.08 203.61 371.59 213.67 386.72 224.28 C 400.93 234.54 415.47 244.38 430.36 253.64 C 434.08 256.01 438.81 257.83 443.16 256.13 C 445.77 254.84 447.85 252.72 450.36 251.25 C 452.33 252.87 453.82 254.95 455.18 257.09 C 454.38 258.06 453.50 258.93 452.53 259.71 C 439.51 268.81 426.80 278.38 414.58 288.53 C 413.54 289.17 412.48 290.45 411.13 290.01 C 408.89 288.82 407.61 286.49 406.81 284.18 C 409.16 282.09 412.26 280.61 413.84 277.80 C 414.06 275.72 412.02 274.52 410.72 273.28 C 401.95 266.59 393.01 260.12 383.96 253.81 C 374.53 260.96 365.13 268.16 355.67 275.28 C 358.65 284.48 361.47 293.77 365.42 302.61 C 366.75 305.64 369.26 308.97 372.88 308.96 C 376.48 307.83 379.01 304.76 382.31 303.04 C 384.35 304.67 385.89 306.79 387.18 309.04 C 384.53 311.51 381.46 313.42 378.53 315.52 C 369.66 321.89 360.92 328.47 352.67 335.65 C 350.45 334.24 347.05 332.09 347.71 329.09 C 350.04 326.90 353.15 325.36 354.59 322.36 C 356.66 318.21 356.24 313.33 355.14 308.97 C 347.88 278.84 338.76 249.20 329.70 219.58 C 329.21 216.46 326.14 215.52 323.92 213.92 C 323.99 213.52 324.14 212.71 324.22 212.31 C 327.92 207.23 331.66 202.04 333.86 196.10 M 338.39 219.39 C 339.02 223.45 340.51 227.29 341.66 231.21 C 345.40 243.22 349.03 255.26 352.96 267.21 C 361.12 260.96 369.33 254.78 377.51 248.57 C 365.55 239.48 353.53 230.49 341.57 221.40 C 340.54 220.68 339.48 220.01 338.39 219.39 Z" />
<path fill="#001489" opacity="1.00" d=" M 711.63 216.87 C 796.53 210.81 882.93 224.91 961.14 258.65 C 1042.69 293.59 1114.90 349.58 1169.89 419.12 C 1220.88 483.41 1256.68 559.69 1273.24 640.08 C 1292.47 732.66 1287.03 830.32 1257.04 920.03 C 1231.37 997.02 1187.56 1067.81 1130.45 1125.43 C 1077.90 1178.85 1014.03 1221.17 944.15 1248.31 C 856.74 1282.44 760.27 1292.46 667.58 1278.21 C 587.64 1266.05 510.64 1235.16 444.43 1188.73 C 376.32 1141.04 319.27 1077.54 279.63 1004.41 C 243.76 938.46 222.37 864.76 216.98 789.90 C 210.45 701.93 225.58 612.27 261.78 531.75 C 294.04 459.37 343.01 394.65 403.22 343.20 C 462.91 292.03 534.07 254.26 610.04 233.91 C 643.25 224.96 677.32 219.28 711.63 216.87 M 737.32 226.33 C 685.36 227.62 633.57 236.56 584.28 253.11 C 511.76 277.28 444.81 317.79 389.43 370.46 C 330.63 426.29 284.89 495.86 257.33 572.14 C 226.08 658.06 218.23 752.25 234.36 842.21 C 246.62 911.28 273.15 977.76 311.68 1036.38 C 334.92 1071.85 362.46 1104.52 393.53 1133.39 C 451.33 1187.23 521.39 1227.89 596.96 1250.96 C 687.41 1278.74 785.45 1281.21 877.20 1258.14 C 958.39 1237.91 1034.38 1197.55 1096.94 1142.03 C 1153.86 1091.69 1199.69 1028.86 1230.14 959.23 C 1267.49 874.26 1281.22 779.20 1270.02 687.09 C 1260.00 602.86 1228.82 521.32 1180.32 451.76 C 1130.18 379.47 1061.61 320.08 982.82 280.91 C 907.09 242.97 821.97 224.25 737.32 226.33 Z" />
<path fill="#001489" opacity="1.00" d=" M 1219.60 251.95 C 1220.57 249.46 1223.01 248.05 1225.05 246.51 C 1230.28 251.74 1234.79 257.64 1239.88 263.01 C 1246.96 270.79 1254.35 278.29 1261.55 285.95 C 1261.46 288.53 1258.66 289.94 1256.84 291.35 C 1252.16 289.93 1250.44 283.88 1245.79 282.21 C 1244.15 282.50 1242.96 283.72 1241.78 284.75 C 1217.39 306.48 1193.19 328.43 1169.72 351.15 C 1177.13 359.14 1184.30 367.38 1192.45 374.65 C 1195.03 377.13 1198.79 377.40 1202.19 377.58 C 1210.96 377.74 1219.58 375.71 1227.94 373.25 C 1230.91 373.07 1231.05 377.02 1231.81 379.10 C 1221.17 384.90 1210.59 390.80 1200.00 396.67 C 1187.92 382.92 1175.42 369.54 1163.14 355.97 C 1156.03 348.36 1149.12 340.56 1141.76 333.18 C 1139.73 331.23 1137.72 329.26 1136.11 326.96 C 1137.68 325.07 1139.44 323.36 1141.28 321.72 C 1145.08 323.77 1146.90 328.33 1151.09 329.80 C 1152.60 329.85 1153.65 328.63 1154.72 327.74 C 1176.36 308.05 1198.36 288.74 1219.35 268.34 C 1221.69 266.05 1224.52 263.93 1225.83 260.85 C 1225.43 257.08 1221.16 255.25 1219.60 251.95 Z" />
<path fill="#001489" opacity="1.00" d=" M 645.47 260.45 C 650.01 248.70 668.13 244.69 676.48 254.59 C 683.15 261.21 684.00 271.28 682.89 280.13 C 681.49 292.49 674.06 304.41 662.70 309.88 C 660.89 310.61 658.27 311.99 656.80 309.97 C 656.42 308.06 657.80 306.35 659.26 305.32 C 665.79 300.30 668.92 292.02 669.73 284.05 C 665.22 286.12 660.07 287.91 655.09 286.48 C 649.12 284.86 645.11 279.06 644.16 273.16 C 643.70 268.91 643.90 264.47 645.47 260.45 M 659.32 255.25 C 656.42 256.59 655.95 260.23 656.01 263.06 C 656.25 267.32 657.25 271.69 659.65 275.28 C 660.92 277.03 662.71 279.01 665.10 278.79 C 667.02 278.58 669.55 277.37 669.24 275.05 C 668.68 269.41 667.88 263.63 665.57 258.40 C 664.62 256.04 661.92 253.64 659.32 255.25 Z" />
<path fill="#001489" opacity="1.00" d=" M 828.41 251.52 C 836.39 247.12 847.86 249.20 852.85 257.13 C 856.48 262.41 856.01 269.52 853.11 275.02 C 847.69 285.06 836.99 290.27 827.70 296.07 C 832.53 296.74 837.27 298.26 842.17 298.23 C 845.69 297.99 847.25 294.26 850.24 293.00 C 851.43 293.34 852.33 294.25 853.36 294.91 C 851.42 299.47 848.40 303.45 845.99 307.76 C 844.74 309.65 843.80 312.61 840.94 312.11 C 840.05 311.06 839.42 309.52 837.87 309.37 C 828.91 307.60 819.91 305.91 810.85 304.69 C 808.63 304.62 808.72 301.17 810.34 300.28 C 819.16 294.33 828.28 288.40 835.23 280.21 C 838.87 275.77 841.62 269.97 840.55 264.11 C 839.74 259.88 835.04 257.12 830.93 258.20 C 827.66 258.79 825.55 261.55 822.86 263.20 C 821.31 263.38 820.44 261.68 819.34 260.93 C 821.42 257.05 824.42 253.53 828.41 251.52 Z" />
<path fill="#001489" opacity="1.00" d=" M 241.31 282.13 C 243.70 279.16 246.44 283.84 248.49 285.12 C 247.35 289.26 242.70 291.43 242.17 295.85 C 242.49 296.28 243.12 297.12 243.44 297.55 C 265.41 317.30 287.83 336.56 310.62 355.36 C 313.44 357.52 315.81 360.47 319.29 361.58 C 322.99 360.53 324.70 356.62 327.28 354.08 C 327.96 353.98 329.34 353.79 330.02 353.70 C 331.45 355.32 335.51 356.89 333.53 359.49 C 322.28 371.67 311.44 384.23 301.13 397.23 C 300.36 398.29 298.87 399.70 297.57 398.54 C 296.06 397.19 293.46 396.15 293.42 393.87 C 295.30 390.73 298.68 388.53 299.72 384.90 C 300.14 382.27 297.63 380.58 295.96 379.02 C 273.46 358.73 250.55 338.88 226.97 319.85 C 225.53 318.90 223.91 317.52 222.07 318.12 C 217.96 320.03 216.82 326.00 211.97 326.59 C 210.70 325.47 209.42 324.37 208.10 323.32 C 208.11 321.91 208.10 320.41 209.30 319.45 C 220.43 307.41 231.13 294.98 241.31 282.13 Z" />
<path fill="#001489" opacity="1.00" d=" M 486.12 323.14 C 489.36 318.43 492.06 313.32 495.87 309.03 C 497.16 309.73 498.35 310.65 499.02 312.00 C 505.43 323.23 512.03 334.36 518.75 345.43 C 520.67 348.51 522.38 351.75 524.69 354.58 C 526.45 353.63 528.20 352.66 529.94 351.68 C 530.65 351.79 532.08 352.00 532.79 352.11 C 533.29 353.30 533.79 354.51 534.27 355.73 C 525.45 360.95 516.57 366.07 507.90 371.54 C 505.97 370.51 505.06 368.58 505.14 366.46 C 507.46 365.13 509.73 363.70 511.81 362.02 C 508.40 354.77 503.85 348.14 499.85 341.21 C 497.04 336.83 494.88 332.02 491.52 328.00 C 489.47 329.84 487.67 331.93 485.54 333.66 C 483.89 334.69 482.33 333.24 480.99 332.45 C 481.71 328.89 484.32 326.18 486.12 323.14 Z" />
<path fill="#001489" opacity="1.00" d=" M 735.14 315.36 C 812.03 312.66 889.57 330.71 957.11 367.64 C 1030.78 407.56 1092.43 469.22 1132.35 542.89 C 1152.47 579.82 1167.13 619.71 1175.72 660.88 C 1194.52 750.69 1184.25 846.44 1145.95 929.89 C 1114.59 998.79 1064.89 1059.18 1003.38 1103.30 C 971.00 1126.59 935.41 1145.43 897.90 1159.02 C 810.59 1190.81 713.01 1193.31 624.11 1166.34 C 549.29 1143.78 480.96 1100.38 428.44 1042.54 C 393.03 1003.68 364.66 958.38 345.38 909.46 C 313.00 828.08 306.55 736.79 326.34 651.53 C 343.76 576.03 382.09 505.58 435.70 449.69 C 487.05 395.80 552.45 355.36 623.71 333.79 C 659.84 322.80 697.41 316.64 735.14 315.36 M 720.60 326.81 C 642.66 332.03 566.43 359.62 503.08 405.31 C 440.10 450.43 389.83 513.06 359.51 584.36 C 326.07 662.50 317.24 750.81 334.19 834.07 C 347.21 898.84 375.85 960.33 416.79 1012.16 C 465.38 1073.96 531.40 1121.93 605.33 1148.76 C 693.85 1181.18 793.28 1182.66 882.73 1152.89 C 952.63 1129.89 1016.19 1088.14 1065.33 1033.38 C 1120.41 972.39 1157.23 895.07 1169.40 813.76 C 1182.49 728.38 1168.78 639.02 1130.02 561.78 C 1091.83 484.53 1029.41 419.59 953.88 378.15 C 883.22 339.03 801.14 321.07 720.60 326.81 Z" />
<path fill="#001489" opacity="1.00" d=" M 975.82 333.91 C 985.24 319.39 1005.29 313.28 1021.30 319.65 C 1023.80 320.53 1023.04 325.02 1020.13 324.31 C 1011.08 323.16 1001.96 326.59 994.90 332.14 C 1001.29 332.75 1007.80 336.67 1009.65 343.10 C 1011.97 351.08 1007.36 359.40 1001.25 364.33 C 992.11 371.35 977.35 367.88 972.00 357.80 C 968.59 349.92 971.07 340.70 975.82 333.91 M 989.81 338.80 C 986.79 341.92 984.79 345.88 982.80 349.70 C 981.65 352.57 980.09 355.81 981.11 358.94 C 981.82 360.96 984.20 360.98 985.93 361.60 C 990.78 358.78 993.71 353.69 995.88 348.69 C 996.88 345.97 997.87 342.53 996.03 339.97 C 994.45 338.59 991.57 336.82 989.81 338.80 Z" />
<path fill="#001489" opacity="1.00" d=" M 1320.84 371.93 C 1322.79 370.58 1324.75 369.19 1327.01 368.38 C 1328.44 368.75 1329.08 370.10 1329.75 371.30 C 1338.56 388.82 1348.62 405.67 1358.12 422.82 C 1362.79 430.94 1367.15 439.25 1372.12 447.20 C 1372.93 448.53 1372.64 450.32 1371.31 451.20 C 1364.98 457.26 1358.46 463.12 1352.23 469.28 C 1350.08 471.38 1347.79 468.09 1346.04 467.03 C 1348.81 457.47 1352.25 447.94 1353.21 437.99 C 1354.10 429.83 1349.21 423.00 1345.76 416.09 C 1344.23 413.16 1342.71 410.23 1341.24 407.29 C 1327.42 414.77 1313.66 422.35 1299.86 429.86 C 1302.61 434.52 1305.28 439.29 1308.69 443.52 C 1312.72 447.87 1319.47 448.35 1324.85 446.57 C 1326.38 446.24 1328.12 444.82 1329.57 446.21 C 1330.62 448.16 1331.32 450.27 1332.15 452.33 C 1321.22 458.27 1310.12 463.99 1299.92 471.16 C 1298.24 472.90 1296.48 470.86 1295.35 469.60 C 1294.47 468.46 1292.49 466.82 1294.21 465.47 C 1297.75 461.36 1302.61 456.95 1301.46 450.91 C 1300.10 444.59 1296.62 438.97 1293.72 433.26 C 1282.72 439.24 1272.08 445.85 1261.37 452.33 C 1257.97 454.48 1253.60 456.58 1252.60 460.84 C 1253.13 465.63 1255.87 469.77 1258.07 473.95 C 1262.19 480.88 1265.89 488.94 1273.63 492.53 C 1282.36 496.39 1291.94 497.72 1301.15 500.05 C 1301.00 502.19 1301.75 505.10 1299.74 506.59 C 1291.15 508.56 1282.56 510.56 1273.94 512.33 C 1272.20 512.80 1270.48 511.86 1269.65 510.37 C 1255.85 484.96 1241.95 459.59 1227.51 434.54 C 1226.20 431.76 1223.33 429.41 1223.44 426.19 C 1225.10 424.55 1227.36 422.99 1229.80 422.99 C 1232.72 426.36 1233.76 431.16 1237.45 433.93 C 1239.48 434.24 1241.22 432.74 1243.00 431.95 C 1269.00 417.31 1295.23 403.05 1320.95 387.90 C 1323.16 386.41 1326.57 384.41 1325.61 381.25 C 1324.33 377.99 1322.26 375.12 1320.84 371.93 Z" />
<path fill="#001489" opacity="1.00" d=" M 677.24 373.01 C 735.81 373.46 794.38 374.14 852.95 374.57 C 868.82 375.98 884.09 381.85 897.46 390.39 C 923.12 406.84 942.28 432.24 953.85 460.22 C 966.53 491.04 970.00 526.41 959.50 558.39 C 951.61 582.96 934.98 604.22 914.07 619.15 C 892.84 634.39 867.92 643.73 842.54 649.34 C 824.27 653.38 805.63 655.54 786.96 656.48 C 784.89 656.83 783.53 655.04 781.99 654.04 C 782.50 687.86 782.75 721.69 783.55 755.50 C 849.28 716.61 914.95 677.56 980.77 638.83 C 985.91 634.64 988.81 628.40 991.20 622.37 C 995.49 610.91 997.81 598.82 999.25 586.70 C 1018.98 620.65 1038.28 654.85 1057.81 688.92 C 1040.96 685.15 1024.13 681.17 1007.05 678.62 C 1005.32 678.53 1003.39 677.73 1001.83 678.79 C 932.82 720.17 863.81 761.57 794.82 803.00 C 866.84 844.83 939.25 886.02 1011.28 927.83 C 1017.89 930.38 1025.21 929.63 1032.06 928.57 C 1043.72 926.55 1054.96 922.65 1065.87 918.15 C 1045.74 951.95 1025.64 985.76 1005.47 1019.53 C 1000.52 1003.01 995.63 986.45 989.46 970.34 C 988.65 968.65 988.28 966.45 986.43 965.60 C 919.20 927.43 852.01 889.18 784.74 851.07 C 785.85 931.10 786.84 1011.13 788.01 1091.17 C 787.71 1096.81 792.09 1101.54 797.06 1103.51 C 807.09 1106.31 817.17 1108.96 827.21 1111.77 C 826.82 1116.84 826.63 1121.93 826.22 1127.00 C 780.80 1127.00 735.38 1127.00 689.96 1127.00 C 690.28 1121.58 690.29 1116.16 690.55 1110.75 C 698.55 1109.28 706.61 1108.10 714.58 1106.47 C 719.62 1104.81 725.47 1100.98 725.23 1095.01 C 724.38 1077.69 725.08 1060.34 724.49 1043.02 C 724.51 977.09 724.50 911.16 724.50 845.24 C 655.47 886.62 586.51 928.14 517.46 969.49 C 512.72 972.30 509.29 976.73 505.98 981.02 C 497.07 993.30 492.49 1008.48 492.14 1023.58 C 472.72 989.96 453.49 956.24 434.16 922.57 C 448.60 927.57 463.53 932.30 478.95 932.42 C 486.15 932.75 491.91 928.17 497.80 924.78 C 565.80 884.50 633.81 844.24 701.79 803.94 C 634.29 765.60 566.77 727.26 499.26 688.93 C 489.82 682.60 477.92 681.52 466.87 682.17 C 456.08 683.00 445.59 686.32 436.02 691.31 C 455.88 657.96 475.62 624.53 495.54 591.21 C 497.62 603.67 500.45 616.11 505.34 627.80 C 507.97 633.57 510.93 639.91 516.76 643.08 C 586.09 682.98 655.41 722.89 724.75 762.79 C 724.86 719.52 724.50 676.24 725.00 632.97 C 724.83 564.98 725.43 496.99 725.24 429.00 C 725.09 421.96 726.59 414.61 724.13 407.82 C 721.24 400.68 713.43 396.98 706.18 396.10 C 696.54 395.73 686.91 395.53 677.27 395.47 C 677.22 387.98 677.26 380.49 677.24 373.01 M 778.74 407.56 C 778.79 431.66 779.39 455.74 779.60 479.84 C 780.49 536.57 781.02 593.31 782.04 650.04 C 796.11 650.20 810.26 649.89 824.08 647.01 C 851.17 641.90 877.06 628.29 894.82 606.93 C 917.80 579.80 927.05 542.78 923.59 507.76 C 920.67 477.92 908.69 448.25 886.95 427.17 C 874.56 415.24 858.98 406.56 842.15 402.85 C 821.13 398.10 799.00 400.71 778.74 407.56 Z" />
<path fill="#001489" opacity="1.00" d=" M 167.38 397.19 C 173.96 394.79 181.57 393.82 188.18 396.61 C 195.39 400.01 201.62 405.95 204.47 413.50 C 207.70 421.82 206.88 431.28 203.61 439.47 C 208.92 434.85 216.25 434.21 222.96 433.68 C 235.89 432.83 248.86 431.90 261.59 429.39 C 266.49 427.83 268.38 422.51 271.94 419.29 C 274.11 420.34 276.21 421.55 278.16 422.98 C 274.75 429.80 270.43 436.14 267.04 442.99 C 264.88 446.94 263.23 451.16 260.87 454.99 C 257.47 456.45 253.67 456.56 250.04 456.94 C 242.02 457.31 233.99 457.72 225.97 457.25 C 217.53 457.37 208.63 456.45 200.73 460.00 C 197.27 461.40 195.89 465.04 194.23 468.07 C 205.16 474.08 216.22 479.87 227.46 485.29 C 229.68 486.10 232.64 487.76 234.75 485.85 C 236.64 483.33 237.55 480.14 239.92 477.95 C 242.18 479.05 244.42 480.26 246.31 481.94 C 238.62 495.49 230.78 509.00 224.08 523.08 C 223.54 524.63 221.92 525.94 220.32 524.80 C 218.84 523.80 215.93 523.34 215.98 521.16 C 217.24 518.13 219.15 515.37 220.00 512.15 C 219.08 510.66 218.07 509.17 216.42 508.44 C 190.75 493.97 164.78 480.05 138.84 466.08 C 135.77 464.56 131.92 462.26 128.57 464.25 C 126.72 466.71 126.00 470.03 123.34 471.84 C 121.22 470.69 119.11 469.51 117.10 468.17 C 119.66 463.09 122.80 458.34 125.48 453.33 C 132.16 441.55 138.07 429.34 144.47 417.41 C 149.41 408.26 157.52 400.72 167.38 397.19 M 143.51 435.49 C 142.41 438.21 145.32 440.38 147.40 441.57 C 160.92 449.21 174.44 456.84 187.97 464.48 C 192.09 458.13 195.50 450.67 193.95 442.92 C 191.00 428.40 175.93 416.94 161.05 419.07 C 153.16 421.42 146.21 427.63 143.51 435.49 Z" />
<path fill="#001489" opacity="1.00" d=" M 92.34 537.14 C 93.38 533.36 98.18 535.75 100.37 537.04 C 100.64 540.72 97.91 544.15 98.66 547.89 C 99.12 549.73 101.06 550.11 102.61 550.62 C 120.09 555.69 137.43 561.21 154.99 566.01 C 166.97 569.28 178.96 572.51 190.93 575.80 C 193.17 576.30 196.46 577.52 197.86 574.88 C 199.49 571.81 199.65 568.20 201.19 565.10 C 203.56 564.28 206.02 566.01 208.40 566.31 C 208.48 567.81 208.38 569.31 207.84 570.73 C 202.91 585.64 198.65 600.77 194.91 616.02 C 194.41 617.10 194.54 619.12 192.94 619.21 C 190.79 618.67 188.02 618.64 186.51 616.90 C 186.60 613.20 188.93 609.81 188.45 606.07 C 187.99 604.17 186.28 603.12 184.53 602.66 C 154.92 593.34 125.10 584.62 94.99 577.04 C 93.03 576.66 90.46 576.36 89.30 578.42 C 87.43 582.00 87.59 586.39 85.11 589.69 C 82.92 589.03 80.72 588.39 78.53 587.75 C 78.54 586.24 78.63 584.72 79.16 583.31 C 84.15 568.09 88.51 552.68 92.34 537.14 Z" />
<path fill="#001489" opacity="1.00" d=" M 1334.87 543.88 C 1346.42 538.87 1359.19 535.50 1371.83 537.59 C 1387.87 539.70 1402.43 549.17 1411.87 562.16 C 1419.86 573.23 1424.23 586.58 1425.99 600.02 C 1426.89 608.75 1426.96 617.78 1424.40 626.26 C 1423.24 630.79 1431.52 628.56 1431.13 633.02 C 1431.54 634.94 1429.39 635.59 1428.02 636.07 C 1416.91 639.57 1405.87 643.28 1394.76 646.76 C 1391.50 648.18 1390.53 644.11 1389.51 641.95 C 1388.35 640.30 1390.24 639.14 1391.42 638.37 C 1400.76 632.28 1409.46 624.30 1413.83 613.82 C 1419.02 601.18 1416.88 584.82 1406.49 575.40 C 1398.57 568.70 1388.26 565.40 1378.07 564.33 C 1367.07 563.03 1356.06 565.75 1345.83 569.61 C 1338.28 572.59 1330.97 576.43 1324.83 581.80 C 1318.75 587.06 1314.37 594.22 1312.13 601.91 C 1309.95 609.48 1312.24 617.31 1314.49 624.57 C 1316.02 628.65 1317.91 632.95 1321.40 635.73 C 1326.94 637.22 1332.62 634.93 1338.05 633.79 C 1342.59 632.42 1347.60 632.16 1351.73 629.65 C 1355.06 625.80 1350.23 620.73 1351.24 616.25 C 1353.45 615.63 1355.66 614.90 1357.99 614.70 C 1359.33 615.55 1359.05 617.52 1359.60 618.89 C 1361.80 629.94 1364.47 640.90 1367.34 651.81 C 1368.38 655.96 1369.90 660.00 1370.45 664.28 C 1368.29 665.01 1366.09 665.62 1363.90 666.21 C 1361.14 663.88 1362.17 659.63 1359.75 657.11 C 1357.52 655.76 1354.89 656.94 1352.58 657.36 C 1344.64 659.59 1336.41 660.79 1328.73 663.84 C 1327.56 664.26 1326.59 663.99 1325.84 663.02 C 1312.51 648.53 1304.89 629.64 1301.34 610.47 C 1299.24 597.93 1299.93 584.65 1304.96 572.85 C 1310.76 559.83 1321.91 549.59 1334.87 543.88 Z" />
<path fill="#001489" opacity="1.00" d=" M 61.71 654.54 C 64.16 654.29 66.92 653.54 69.19 654.83 C 70.98 658.26 68.50 662.37 70.06 665.87 C 71.51 667.62 74.04 667.35 76.08 667.55 C 106.07 668.34 136.07 668.74 166.07 669.20 C 168.48 669.05 171.51 669.23 173.22 667.21 C 174.03 663.80 173.64 660.22 173.85 656.74 C 176.39 656.78 181.88 655.07 181.90 658.98 C 181.23 668.02 180.88 677.08 180.72 686.14 C 180.04 694.42 181.07 702.77 180.14 711.02 C 177.67 711.00 175.21 710.98 172.75 710.94 C 172.15 706.73 172.78 702.48 172.52 698.26 C 172.21 695.78 169.15 695.69 167.21 695.40 C 136.17 693.71 105.08 692.98 74.00 692.25 C 93.51 701.55 113.40 710.02 132.97 719.20 C 144.91 724.61 156.94 729.82 168.91 735.15 C 171.78 736.46 175.03 737.57 176.96 740.24 C 177.99 742.11 176.70 744.18 174.90 744.91 C 140.78 758.76 106.26 771.63 71.88 784.81 C 94.52 786.32 117.23 787.21 139.92 787.06 C 149.13 786.64 159.15 788.27 167.51 783.46 C 172.00 780.91 169.97 775.23 170.80 771.09 C 173.28 770.99 175.76 770.99 178.25 771.07 C 179.09 773.63 178.54 776.31 178.35 778.93 C 177.45 791.02 177.72 803.18 177.31 815.27 C 175.13 815.24 172.94 815.24 170.76 815.30 C 167.68 811.98 171.49 806.89 168.44 803.57 C 164.66 799.76 158.91 799.32 153.88 798.55 C 127.67 795.79 101.33 793.95 74.96 794.02 C 71.52 794.07 67.30 795.34 66.19 799.01 C 65.62 802.34 65.72 805.76 65.45 809.13 C 62.86 809.67 60.23 809.29 57.62 809.08 C 57.79 795.08 59.35 781.07 58.52 767.07 C 58.18 764.64 59.78 762.60 62.07 762.03 C 88.97 752.68 115.46 742.21 142.32 732.75 C 115.61 720.70 89.02 708.37 61.97 697.10 C 60.43 691.92 61.36 686.42 61.45 681.11 C 61.45 672.25 61.95 663.40 61.71 654.54 Z" />
<path fill="#001489" opacity="1.00" d=" M 1322.05 714.01 C 1324.26 712.90 1326.85 713.81 1329.22 713.81 C 1330.47 718.32 1328.37 723.22 1330.40 727.61 C 1331.96 728.83 1334.02 728.76 1335.91 728.91 C 1365.98 729.56 1396.04 730.74 1426.11 730.98 C 1428.79 730.86 1432.65 730.48 1433.23 727.21 C 1433.71 723.85 1433.50 720.43 1433.87 717.06 C 1436.33 717.00 1438.81 717.00 1441.30 717.05 C 1442.40 721.28 1441.16 725.64 1441.17 729.93 C 1440.23 754.29 1439.82 778.66 1439.26 803.02 C 1438.86 805.47 1440.32 809.05 1437.87 810.67 C 1428.60 812.99 1419.14 814.55 1409.93 817.11 C 1408.32 815.68 1406.83 813.59 1407.31 811.35 C 1412.72 806.10 1418.52 801.21 1423.61 795.62 C 1427.76 791.40 1431.01 786.03 1431.89 780.11 C 1432.43 772.70 1432.83 765.28 1433.22 757.86 C 1417.48 757.21 1401.73 756.77 1386.00 756.02 C 1386.14 761.97 1385.59 768.10 1387.16 773.91 C 1389.57 780.43 1396.71 783.24 1403.09 784.16 C 1403.37 786.89 1402.86 789.62 1402.16 792.26 C 1389.13 790.73 1375.96 791.18 1362.92 791.47 C 1361.95 789.17 1361.82 786.66 1361.73 784.21 C 1367.33 782.46 1374.49 781.15 1376.78 774.91 C 1378.84 768.80 1378.81 762.20 1379.10 755.82 C 1364.72 755.33 1350.35 755.54 1335.98 755.92 C 1333.51 756.16 1330.48 756.82 1329.36 759.30 C 1327.54 763.95 1327.99 769.05 1327.57 773.93 C 1327.43 779.08 1327.38 784.32 1328.40 789.40 C 1330.51 797.89 1337.62 803.56 1343.43 809.57 C 1345.86 812.18 1349.01 814.12 1351.03 817.11 C 1350.43 819.40 1348.48 823.10 1345.58 821.67 C 1337.76 819.04 1329.88 816.57 1322.08 813.91 C 1320.32 813.47 1318.88 811.89 1319.01 810.04 C 1320.27 781.02 1321.09 751.98 1321.72 722.95 C 1321.86 719.99 1320.80 716.80 1322.05 714.01 Z" />
<path fill="#001489" opacity="1.00" d=" M 323.75 905.27 C 325.75 903.98 328.36 901.58 330.78 903.32 C 333.02 908.06 334.62 913.10 336.94 917.83 C 340.49 925.74 345.14 933.89 344.38 942.86 C 343.89 950.92 337.28 957.71 329.52 959.32 C 323.80 960.69 317.59 958.66 313.43 954.59 C 308.93 950.51 306.34 944.88 304.21 939.31 C 298.92 941.57 293.65 943.87 288.41 946.25 C 289.37 948.43 290.24 950.68 290.39 953.10 C 288.20 954.07 284.82 956.79 283.06 953.80 C 279.81 946.14 276.77 938.36 273.12 930.88 C 270.94 927.22 276.07 924.98 279.01 925.60 C 280.17 927.00 280.78 928.75 281.60 930.37 C 296.43 924.36 311.15 918.09 325.75 911.54 C 324.87 909.51 324.11 907.44 323.75 905.27 M 311.09 936.33 C 312.09 940.72 316.59 943.59 320.95 943.46 C 325.68 942.68 330.81 940.60 333.27 936.23 C 334.94 933.31 334.27 929.78 332.95 926.88 C 325.69 930.08 318.36 933.15 311.09 936.33 Z" />
<path fill="#001489" opacity="1.00" d=" M 1164.87 913.78 C 1165.03 911.77 1163.84 909.06 1166.06 907.87 C 1168.16 907.36 1170.23 908.22 1172.24 908.81 C 1176.32 910.16 1180.50 911.29 1184.48 912.97 C 1184.38 914.89 1184.81 916.99 1183.90 918.79 C 1182.31 920.28 1179.91 919.49 1177.98 919.85 C 1173.23 919.94 1167.56 921.97 1166.49 927.19 C 1164.80 932.42 1171.07 937.11 1175.81 935.08 C 1181.24 932.27 1183.98 926.33 1189.04 923.05 C 1192.61 920.72 1196.59 918.45 1200.98 918.47 C 1210.50 918.82 1220.16 925.42 1221.99 935.13 C 1223.57 944.85 1218.55 954.95 1210.88 960.82 C 1211.12 962.60 1211.77 964.85 1210.13 966.22 C 1208.39 967.69 1206.22 966.36 1204.54 965.56 C 1200.37 963.31 1196.12 961.23 1192.01 958.90 C 1189.63 957.76 1190.90 954.57 1192.09 952.97 C 1192.95 951.01 1195.23 952.01 1196.82 952.21 C 1200.94 953.01 1205.79 953.05 1209.18 950.17 C 1212.62 947.27 1214.19 941.55 1211.19 937.81 C 1208.33 934.82 1202.96 933.41 1199.76 936.68 C 1193.90 941.94 1188.54 948.27 1180.90 951.00 C 1175.24 952.52 1169.18 950.72 1164.36 947.67 C 1159.81 944.73 1157.94 939.24 1157.33 934.11 C 1156.56 926.61 1160.40 919.52 1164.87 913.78 Z" />
<path fill="#001489" opacity="1.00" d=" M 148.30 946.35 C 163.47 952.88 178.57 959.58 193.69 966.22 C 187.07 981.35 180.39 996.45 173.77 1011.58 C 158.58 1005.05 143.47 998.33 128.34 991.64 C 134.93 976.52 141.64 961.45 148.30 946.35 Z" />
<path fill="#001489" opacity="1.00" d=" M 1306.28 966.30 C 1321.39 959.61 1336.52 952.94 1351.68 946.34 C 1358.37 961.45 1365.04 976.58 1371.64 991.73 C 1356.54 998.38 1341.42 1004.99 1326.31 1011.61 C 1319.57 996.54 1312.92 981.42 1306.28 966.30 Z" />
<path fill="#001489" opacity="1.00" d=" M 1120.69 997.72 C 1121.88 995.86 1124.01 997.20 1125.56 997.71 C 1129.53 999.42 1133.62 1000.89 1137.55 1002.73 C 1139.26 1004.26 1138.27 1006.78 1137.48 1008.54 C 1131.81 1010.46 1125.24 1009.56 1119.99 1012.82 C 1116.97 1015.18 1114.87 1018.48 1112.70 1021.58 C 1117.94 1025.38 1123.07 1029.35 1128.29 1033.20 C 1129.78 1030.68 1132.85 1027.89 1131.24 1024.75 C 1130.45 1022.48 1127.20 1021.04 1128.15 1018.35 C 1129.35 1016.27 1131.85 1013.62 1134.30 1015.71 C 1138.99 1019.40 1143.82 1022.90 1148.87 1026.07 C 1151.32 1027.48 1149.50 1030.68 1148.45 1032.50 C 1145.58 1034.47 1142.27 1030.55 1139.33 1032.32 C 1137.26 1033.70 1135.78 1035.76 1134.17 1037.61 C 1139.95 1041.70 1145.63 1046.01 1151.79 1049.55 C 1154.87 1046.31 1157.63 1042.71 1159.82 1038.80 C 1162.17 1033.39 1159.39 1027.61 1158.80 1022.13 C 1157.81 1018.55 1163.56 1016.53 1165.52 1019.44 C 1168.29 1023.04 1171.19 1026.60 1173.61 1030.46 C 1174.63 1033.35 1172.08 1035.48 1170.58 1037.58 C 1163.53 1046.89 1156.58 1056.29 1149.67 1065.70 C 1147.52 1068.45 1146.09 1071.90 1142.89 1073.65 C 1140.78 1072.83 1139.05 1071.45 1138.00 1069.45 C 1138.96 1067.47 1140.08 1065.58 1141.35 1063.79 C 1128.48 1054.32 1115.79 1044.59 1102.60 1035.58 C 1101.20 1037.18 1100.14 1039.36 1097.96 1040.01 C 1095.25 1039.69 1091.61 1036.76 1093.89 1033.93 C 1103.13 1022.09 1111.78 1009.79 1120.69 997.72 Z" />
<path fill="#001489" opacity="1.00" d=" M 372.23 1001.20 C 372.88 999.18 375.12 998.49 376.76 997.50 C 380.80 999.72 382.65 1004.19 385.61 1007.51 C 388.87 1012.12 393.12 1016.01 395.91 1020.95 C 394.61 1023.14 392.55 1024.64 390.08 1025.24 C 388.82 1023.88 387.57 1022.53 386.32 1021.19 C 381.07 1024.53 376.19 1028.40 371.19 1032.10 C 376.04 1038.23 380.86 1044.39 385.70 1050.53 C 390.44 1046.47 395.35 1042.61 399.87 1038.30 C 399.03 1036.87 397.69 1035.66 397.39 1034.01 C 397.61 1031.57 400.30 1030.71 402.03 1029.54 C 405.58 1031.42 407.24 1035.26 409.73 1038.21 C 412.80 1042.43 416.45 1046.22 419.48 1050.46 C 420.95 1053.36 417.50 1055.56 415.06 1056.03 C 413.14 1055.58 412.21 1053.65 410.94 1052.36 C 398.18 1061.97 385.68 1071.92 373.31 1082.02 C 374.37 1083.65 375.87 1085.11 376.37 1087.07 C 375.92 1089.93 371.16 1092.96 369.20 1089.76 C 364.27 1083.05 359.03 1076.57 353.76 1070.12 C 351.65 1067.12 355.82 1063.55 358.80 1064.36 C 360.26 1065.36 361.21 1066.92 362.36 1068.27 C 368.14 1064.25 373.60 1059.81 379.22 1055.59 C 374.44 1049.42 369.57 1043.32 364.78 1037.15 C 359.36 1041.62 353.90 1046.04 348.64 1050.70 C 349.69 1052.38 352.12 1054.38 350.42 1056.48 C 349.15 1057.67 347.29 1059.63 345.43 1058.62 C 343.79 1057.95 342.95 1056.29 341.90 1054.99 C 337.79 1049.19 333.14 1043.80 328.71 1038.25 C 326.90 1035.47 330.47 1032.75 333.01 1032.44 C 335.15 1032.91 336.14 1035.27 337.63 1036.71 C 350.38 1027.05 363.03 1017.25 375.39 1007.08 C 374.22 1005.22 371.99 1003.63 372.23 1001.20 Z" />
<path fill="#001489" opacity="1.00" d=" M 1050.63 1079.66 C 1052.48 1078.24 1054.26 1075.72 1056.91 1076.36 C 1058.41 1077.48 1059.48 1079.15 1059.99 1080.98 C 1059.34 1082.29 1058.47 1083.46 1057.38 1084.50 C 1066.53 1098.79 1076.81 1112.37 1087.65 1125.43 C 1088.95 1127.03 1090.62 1129.28 1089.27 1131.37 C 1086.58 1134.80 1081.81 1133.30 1078.16 1132.90 C 1061.35 1129.98 1044.58 1126.79 1027.97 1122.89 C 1032.70 1128.54 1037.16 1134.42 1042.18 1139.82 C 1045.40 1143.21 1048.14 1147.12 1051.99 1149.85 C 1053.87 1148.80 1055.63 1147.41 1057.77 1146.92 C 1059.84 1147.63 1061.41 1149.71 1061.73 1151.85 C 1061.06 1154.00 1058.79 1154.93 1057.21 1156.32 C 1053.15 1159.16 1049.61 1162.65 1045.69 1165.67 C 1043.33 1167.52 1041.17 1164.72 1040.17 1162.81 C 1038.72 1160.41 1041.84 1158.94 1043.18 1157.48 C 1041.73 1153.36 1038.81 1150.05 1036.30 1146.57 C 1030.78 1139.17 1025.06 1131.93 1019.24 1124.78 C 1017.72 1122.82 1015.45 1121.51 1013.01 1121.17 C 1011.10 1121.43 1009.66 1122.91 1007.96 1123.69 C 1005.30 1124.25 1003.35 1121.20 1003.07 1118.91 C 1004.64 1115.67 1008.35 1114.25 1010.90 1111.88 C 1014.05 1109.79 1016.43 1106.41 1019.98 1105.03 C 1025.74 1105.04 1031.28 1107.10 1036.95 1108.03 C 1047.58 1110.22 1058.20 1112.46 1068.79 1114.87 C 1062.45 1107.11 1056.16 1099.28 1049.07 1092.19 C 1046.57 1092.77 1044.64 1095.09 1042.00 1094.94 C 1040.32 1093.56 1037.97 1091.50 1039.00 1089.11 C 1042.63 1085.68 1046.98 1083.09 1050.63 1079.66 Z" />
<path fill="#001489" opacity="1.00" d=" M 458.12 1094.51 C 459.53 1092.85 460.95 1090.83 463.43 1091.12 C 470.17 1096.95 477.26 1102.35 484.34 1107.76 C 487.37 1110.18 483.56 1113.56 481.22 1114.75 C 479.61 1113.80 478.05 1112.81 476.52 1111.78 C 466.44 1124.20 456.49 1136.74 446.87 1149.52 C 448.29 1150.66 449.72 1151.83 451.16 1152.99 C 451.34 1155.64 449.58 1158.05 447.05 1158.84 C 444.80 1158.49 443.32 1156.63 441.62 1155.33 C 436.03 1150.48 429.89 1146.31 424.21 1141.60 C 422.68 1138.72 425.94 1136.49 428.09 1135.26 C 429.77 1136.23 431.40 1137.31 432.99 1138.46 C 443.35 1126.28 453.21 1113.69 462.72 1100.85 C 460.79 1099.05 457.67 1097.65 458.12 1094.51 Z" />
<path fill="#001489" opacity="1.00" d=" M 270.42 1108.58 C 271.85 1107.06 274.24 1103.15 276.38 1105.66 C 284.34 1115.31 292.47 1124.86 301.10 1133.93 C 301.97 1135.00 303.43 1136.04 302.98 1137.64 C 301.79 1138.91 300.31 1139.86 298.90 1140.88 C 295.78 1138.70 294.14 1133.92 289.97 1133.67 C 286.56 1135.67 284.94 1139.52 282.74 1142.64 C 274.05 1156.57 266.21 1171.01 257.86 1185.15 C 274.47 1179.66 290.85 1173.48 307.17 1167.21 C 309.77 1166.11 312.69 1164.99 314.32 1162.57 C 315.86 1159.42 312.32 1156.99 310.62 1154.81 C 311.15 1152.65 312.87 1151.27 314.49 1149.93 C 319.50 1154.44 323.16 1160.24 327.83 1165.10 C 330.84 1168.52 334.05 1171.76 337.04 1175.21 C 335.54 1176.58 334.33 1179.01 332.05 1179.02 C 329.54 1176.52 327.06 1173.37 323.12 1173.50 C 317.04 1173.65 311.25 1175.86 305.48 1177.57 C 285.37 1184.25 265.13 1190.52 244.93 1196.93 C 241.67 1197.97 238.36 1198.97 234.92 1199.18 C 233.32 1197.75 232.53 1195.63 233.83 1193.72 C 241.37 1177.29 250.26 1161.52 258.47 1145.42 C 263.34 1135.76 269.11 1126.56 273.85 1116.84 C 275.76 1113.49 272.19 1110.94 270.42 1108.58 Z" />
<path fill="#001489" opacity="1.00" d=" M 1212.12 1114.74 C 1213.51 1114.88 1215.06 1114.81 1216.22 1115.80 C 1221.72 1119.67 1227.28 1123.47 1232.71 1127.45 C 1234.38 1128.62 1233.16 1131.02 1232.39 1132.41 C 1231.57 1134.07 1229.63 1133.01 1228.36 1132.75 C 1223.21 1130.99 1217.67 1130.26 1212.28 1131.09 C 1205.10 1132.75 1198.83 1140.32 1200.86 1147.88 C 1201.64 1152.19 1205.42 1154.95 1208.99 1156.98 C 1212.85 1159.13 1217.37 1157.50 1221.14 1155.94 C 1227.55 1153.40 1232.73 1148.39 1239.48 1146.58 C 1245.97 1144.69 1253.32 1143.23 1259.68 1146.39 C 1267.88 1150.43 1274.96 1157.64 1277.15 1166.73 C 1279.19 1174.26 1277.34 1182.51 1272.92 1188.85 C 1267.04 1196.84 1259.20 1203.90 1249.26 1206.10 C 1249.63 1207.76 1250.10 1209.42 1250.02 1211.16 C 1249.17 1211.91 1248.21 1212.52 1247.29 1213.16 C 1240.64 1207.01 1234.26 1200.56 1228.05 1193.97 C 1229.25 1192.38 1230.60 1190.93 1232.06 1189.59 C 1237.13 1192.80 1242.81 1195.20 1248.83 1195.73 C 1256.70 1196.04 1264.54 1190.57 1266.58 1182.88 C 1267.97 1178.53 1267.08 1173.42 1263.72 1170.21 C 1260.55 1167.22 1256.64 1164.00 1251.99 1164.50 C 1243.86 1165.74 1237.39 1171.32 1229.75 1173.94 C 1224.08 1175.88 1218.14 1178.08 1212.05 1177.38 C 1205.11 1176.20 1199.12 1171.76 1194.59 1166.56 C 1189.79 1160.88 1189.98 1152.91 1191.07 1145.98 C 1192.17 1139.56 1196.21 1134.17 1200.69 1129.65 C 1203.63 1126.53 1206.94 1123.76 1210.70 1121.69 C 1211.01 1120.92 1211.34 1120.17 1211.67 1119.42 C 1211.71 1117.84 1211.86 1116.28 1212.12 1114.74 Z" />
<path fill="#001489" opacity="1.00" d=" M 531.76 1146.75 C 532.34 1144.63 533.27 1142.63 534.94 1141.15 C 543.36 1144.96 551.56 1149.30 560.07 1152.95 C 563.07 1154.38 561.14 1157.82 559.72 1159.73 C 557.24 1161.25 554.63 1158.78 552.28 1158.01 C 545.19 1172.35 538.07 1186.69 531.52 1201.28 C 535.75 1203.14 539.84 1205.35 544.21 1206.90 C 546.40 1207.87 548.62 1206.43 550.62 1205.60 C 554.32 1203.94 557.27 1201.07 560.85 1199.21 C 562.63 1200.46 565.83 1202.03 564.51 1204.73 C 560.50 1209.97 556.10 1214.91 552.08 1220.15 C 537.82 1212.80 523.30 1205.93 508.73 1199.21 C 505.73 1197.81 507.87 1194.06 509.30 1192.25 C 511.56 1191.34 513.68 1193.01 515.74 1193.72 C 522.84 1179.40 530.06 1165.12 536.43 1150.45 C 534.51 1149.69 532.93 1148.43 531.76 1146.75 Z" />
<path fill="#001489" opacity="1.00" d=" M 940.19 1152.95 C 945.19 1150.78 949.82 1147.78 954.99 1145.99 C 956.76 1147.74 958.98 1150.70 957.02 1153.12 C 955.82 1154.04 954.41 1154.65 953.11 1155.41 C 959.79 1169.95 966.71 1184.38 973.87 1198.69 C 975.98 1197.95 978.30 1195.83 980.59 1197.22 C 981.94 1199.10 983.74 1202.46 981.01 1204.02 C 973.22 1207.53 965.47 1211.17 957.87 1215.10 C 955.09 1216.79 953.19 1213.26 952.74 1211.00 C 952.25 1207.97 956.04 1207.57 957.93 1206.21 C 951.34 1191.64 944.70 1177.08 937.21 1162.95 C 935.16 1163.72 933.20 1165.23 930.92 1164.99 C 928.71 1163.96 928.44 1161.22 927.98 1159.14 C 931.60 1156.27 936.14 1155.05 940.19 1152.95 Z" />
<path fill="#001489" opacity="1.00" d=" M 630.94 1185.91 C 630.25 1183.54 631.71 1179.38 634.84 1180.52 C 642.25 1182.40 649.65 1184.37 657.17 1185.79 C 658.65 1186.15 660.38 1186.20 661.54 1187.35 C 662.05 1189.18 661.63 1191.16 660.95 1192.91 C 659.26 1194.97 656.49 1193.42 654.34 1193.25 C 650.40 1208.78 646.78 1224.40 643.39 1240.06 C 645.26 1240.62 647.46 1240.67 648.95 1242.12 C 649.71 1244.15 649.49 1246.82 647.83 1248.37 C 646.33 1249.27 644.59 1248.31 643.07 1248.05 C 635.80 1245.97 628.39 1244.46 621.00 1242.90 C 616.93 1242.54 617.90 1235.92 621.11 1235.06 C 622.87 1235.18 624.59 1235.58 626.34 1235.86 C 630.32 1220.38 634.14 1204.86 637.28 1189.19 C 635.20 1188.26 631.40 1188.79 630.94 1185.91 Z" />
<path fill="#001489" opacity="1.00" d=" M 844.12 1185.42 C 852.37 1183.43 861.43 1180.63 869.66 1184.21 C 879.69 1188.20 884.05 1202.03 877.93 1210.98 C 873.17 1218.08 864.49 1220.83 856.47 1222.23 C 857.81 1227.85 859.09 1233.49 860.53 1239.10 C 862.91 1238.87 866.05 1236.80 867.86 1239.27 C 868.67 1241.24 869.78 1244.88 866.91 1245.66 C 859.24 1247.32 851.52 1248.80 843.96 1250.95 C 842.46 1251.19 840.63 1252.12 839.36 1250.85 C 838.20 1249.13 838.09 1246.95 838.28 1244.98 C 839.49 1243.32 842.27 1243.89 843.50 1242.47 C 840.49 1226.87 836.83 1211.39 833.04 1195.95 C 830.75 1196.13 827.74 1198.11 825.97 1195.94 C 824.94 1194.14 825.13 1191.99 825.23 1190.03 C 831.38 1187.94 837.91 1187.34 844.12 1185.42 M 849.50 1191.66 C 851.21 1199.44 853.04 1207.19 854.83 1214.95 C 860.13 1214.68 864.19 1209.32 863.62 1204.18 C 863.18 1199.75 861.74 1194.73 857.60 1192.40 C 855.15 1190.87 852.19 1191.17 849.50 1191.66 Z" />
<path fill="#001489" opacity="1.00" d=" M 718.52 1200.85 C 717.86 1198.81 717.87 1194.78 720.88 1194.95 C 728.59 1195.28 736.31 1195.28 744.03 1195.24 C 750.83 1195.33 758.21 1195.85 763.78 1200.21 C 772.64 1206.72 773.37 1221.76 764.61 1228.67 C 758.26 1233.93 749.61 1234.32 741.75 1234.00 C 741.96 1239.73 741.40 1245.45 741.66 1251.19 C 743.78 1251.29 746.12 1250.96 748.04 1252.13 C 749.25 1254.31 749.60 1259.12 746.10 1259.18 C 739.05 1258.88 732.01 1258.60 724.96 1258.77 C 722.80 1258.60 720.24 1259.28 718.49 1257.66 C 717.56 1255.54 717.92 1253.15 718.82 1251.12 C 720.70 1251.02 722.58 1250.94 724.47 1250.85 C 724.94 1234.84 725.41 1218.83 725.24 1202.81 C 723.05 1202.53 719.50 1203.55 718.52 1200.85 M 742.28 1202.64 C 742.07 1210.62 742.00 1218.60 741.89 1226.59 C 747.10 1227.26 752.43 1223.30 753.01 1218.03 C 753.63 1213.80 753.45 1208.95 750.45 1205.61 C 748.35 1203.35 745.25 1202.60 742.28 1202.64 Z" />
<path fill="#001489" opacity="1.00" d=" M 402.02 1236.74 C 401.13 1234.37 403.61 1232.64 404.84 1230.99 C 422.02 1242.36 439.70 1252.94 457.16 1263.87 C 459.50 1265.42 462.41 1266.35 464.01 1268.82 C 461.57 1275.90 459.27 1283.03 457.13 1290.21 C 455.39 1289.93 452.98 1290.55 452.20 1288.46 C 449.58 1279.67 449.38 1269.33 442.55 1262.46 C 437.83 1258.81 432.68 1255.72 427.72 1252.41 C 421.44 1262.19 415.25 1272.04 408.91 1281.79 C 412.53 1283.91 416.07 1286.28 420.07 1287.64 C 424.97 1289.06 429.41 1285.57 432.53 1282.20 C 433.06 1282.10 434.13 1281.90 434.66 1281.81 C 436.07 1282.90 437.23 1284.25 437.88 1285.95 C 432.58 1293.20 428.01 1300.96 423.87 1308.92 C 422.71 1311.84 419.26 1309.25 417.39 1308.40 C 418.27 1304.22 420.36 1299.33 417.36 1295.52 C 414.34 1291.70 409.92 1289.30 405.93 1286.64 C 400.34 1295.31 395.35 1304.34 390.19 1313.26 C 389.21 1315.32 387.74 1318.29 389.75 1320.19 C 393.53 1323.96 398.38 1326.39 402.89 1329.16 C 406.41 1331.39 410.57 1332.70 414.76 1332.36 C 421.43 1331.54 427.77 1329.19 434.26 1327.61 C 436.26 1328.16 437.75 1331.29 435.98 1332.88 C 431.63 1336.98 427.01 1340.80 422.58 1344.82 C 421.29 1346.09 419.18 1346.81 417.59 1345.66 C 397.40 1332.86 377.34 1319.81 356.71 1307.73 C 357.46 1305.61 358.30 1302.69 361.15 1302.99 C 364.03 1304.01 366.37 1307.13 369.60 1306.79 C 373.99 1301.26 377.17 1294.87 381.09 1289.02 C 389.05 1276.27 397.07 1263.56 404.80 1250.68 C 406.22 1247.91 408.61 1245.38 408.76 1242.16 C 407.54 1239.39 404.11 1238.68 402.02 1236.74 Z" />
<path fill="#001489" opacity="1.00" d=" M 1068.91 1249.04 C 1071.25 1246.12 1072.59 1242.61 1074.07 1239.23 L 1074.91 1239.04 C 1080.92 1242.92 1086.14 1247.93 1091.91 1252.18 C 1108.58 1265.08 1124.41 1279.05 1141.55 1291.36 C 1143.72 1292.91 1146.21 1294.40 1149.00 1294.23 C 1152.11 1294.59 1154.00 1291.34 1156.90 1291.01 C 1158.64 1292.43 1161.21 1295.64 1158.24 1297.25 C 1147.71 1303.60 1137.39 1310.31 1127.32 1317.36 C 1124.74 1319.52 1123.16 1315.34 1121.77 1313.83 C 1123.75 1311.71 1126.50 1310.44 1128.19 1308.03 C 1121.71 1301.17 1114.05 1295.55 1106.90 1289.43 C 1099.47 1294.15 1092.17 1299.04 1084.76 1303.77 C 1086.26 1310.51 1087.99 1317.22 1090.14 1323.79 C 1090.95 1326.23 1092.32 1329.00 1095.09 1329.63 C 1098.06 1329.11 1100.40 1326.94 1103.07 1325.66 C 1104.11 1327.05 1105.50 1328.31 1106.02 1330.03 C 1106.42 1331.51 1104.61 1332.01 1103.73 1332.74 C 1095.14 1337.71 1086.84 1343.17 1078.79 1348.96 C 1077.09 1347.66 1075.87 1345.94 1074.94 1344.07 C 1079.18 1341.39 1083.41 1337.45 1082.46 1331.87 C 1079.05 1308.25 1073.41 1285.01 1068.25 1261.73 C 1068.11 1258.96 1065.82 1257.52 1063.86 1256.04 C 1064.88 1253.30 1067.36 1251.47 1068.91 1249.04 M 1074.76 1261.22 C 1077.22 1273.29 1080.17 1285.27 1083.05 1297.25 C 1089.37 1293.10 1095.75 1289.02 1102.06 1284.85 C 1092.84 1277.11 1084.09 1268.82 1074.76 1261.22 Z" />
<path fill="#001489" opacity="1.00" d=" M 955.63 1299.74 C 957.20 1298.11 958.84 1300.11 959.43 1301.61 C 962.82 1309.10 966.55 1316.44 969.87 1323.96 C 970.41 1325.99 968.24 1326.88 967.09 1328.06 C 961.08 1324.73 956.49 1319.01 949.95 1316.68 C 943.42 1316.66 937.12 1318.68 930.89 1320.36 C 937.70 1343.06 944.45 1365.77 951.36 1388.44 C 952.00 1390.21 952.80 1392.88 955.07 1393.01 C 957.96 1392.43 960.74 1391.34 963.67 1390.87 C 964.36 1392.81 964.91 1394.82 965.20 1396.88 C 951.58 1400.55 938.03 1404.52 924.68 1409.08 C 923.50 1407.18 922.82 1405.05 922.68 1402.85 C 926.10 1401.30 933.63 1401.67 932.30 1396.09 C 925.75 1372.71 918.47 1349.53 911.68 1326.23 C 905.82 1327.89 899.87 1329.60 894.60 1332.71 C 891.58 1334.32 890.88 1338.00 889.57 1340.87 C 888.12 1344.40 887.14 1348.10 885.64 1351.62 C 884.09 1352.38 882.09 1351.92 880.56 1351.33 C 879.57 1342.94 879.81 1334.41 879.04 1325.99 C 878.57 1324.08 879.59 1321.05 882.05 1322.12 C 884.47 1323.46 887.05 1324.85 889.94 1324.15 C 902.21 1321.79 914.15 1317.95 926.12 1314.40 C 933.41 1312.04 940.77 1309.81 947.85 1306.87 C 951.27 1305.50 953.49 1302.56 955.63 1299.74 Z" />
<path fill="#001489" opacity="1.00" d=" M 558.75 1317.13 C 559.20 1315.05 559.83 1313.02 560.72 1311.10 C 573.01 1314.96 585.52 1318.07 598.06 1320.99 C 604.71 1322.40 611.40 1324.81 616.42 1329.56 C 621.64 1334.24 625.61 1340.83 625.83 1347.97 C 625.23 1356.78 619.28 1365.20 610.87 1368.18 C 606.61 1369.65 601.97 1370.30 597.51 1369.41 C 602.48 1373.58 604.05 1380.16 606.00 1386.05 C 608.30 1393.76 611.14 1401.30 614.32 1408.70 C 615.89 1412.42 620.26 1413.52 623.73 1414.78 C 623.90 1417.03 623.20 1419.25 621.67 1420.95 C 613.59 1418.19 605.31 1416.11 596.97 1414.33 C 594.97 1414.06 594.48 1411.82 593.74 1410.32 C 590.49 1401.80 588.66 1392.84 586.66 1383.98 C 585.47 1379.39 584.23 1374.57 581.19 1370.83 C 579.58 1368.79 576.84 1368.44 574.54 1367.69 C 572.34 1376.05 570.22 1384.43 568.37 1392.88 C 567.92 1395.09 567.38 1397.50 568.20 1399.73 C 570.36 1400.97 572.91 1401.26 575.29 1401.96 C 575.18 1404.07 574.72 1406.16 573.98 1408.16 C 561.83 1404.91 549.75 1401.32 537.43 1398.74 C 537.62 1396.62 538.11 1394.55 538.73 1392.55 C 541.15 1392.98 543.53 1393.76 545.99 1394.00 C 548.11 1393.88 548.60 1391.56 549.09 1389.94 C 554.73 1369.77 559.91 1349.48 565.23 1329.23 C 566.01 1326.00 567.20 1322.58 565.87 1319.33 C 563.48 1318.64 561.09 1317.94 558.75 1317.13 M 585.14 1330.04 C 582.18 1340.79 579.11 1351.51 576.13 1362.25 C 581.39 1364.11 587.42 1365.23 592.68 1362.74 C 602.59 1358.04 608.22 1345.17 604.06 1334.87 C 600.85 1329.13 594.55 1325.12 587.95 1324.83 C 586.81 1326.43 585.56 1328.05 585.14 1330.04 Z" />
<path fill="#001489" opacity="1.00" d=" M 738.19 1340.96 C 751.10 1341.06 764.03 1341.14 776.93 1340.35 C 777.45 1340.45 778.51 1340.65 779.04 1340.74 C 779.00 1342.55 779.01 1344.38 779.04 1346.23 C 775.94 1347.67 770.44 1345.20 769.59 1349.76 C 769.32 1373.68 769.87 1397.63 770.86 1421.53 C 770.87 1425.75 776.18 1424.16 778.88 1424.55 C 782.30 1424.51 781.13 1428.55 781.03 1430.73 C 768.03 1430.94 755.01 1430.57 742.03 1431.46 C 738.94 1431.53 738.87 1427.14 740.08 1425.23 C 743.21 1424.47 748.76 1426.32 749.66 1421.95 C 749.97 1398.24 749.74 1374.50 748.59 1350.82 C 748.14 1345.21 741.18 1347.90 737.52 1347.09 C 737.51 1345.02 736.90 1342.77 738.19 1340.96 Z" />
</g>
<g id="#ffffffff">
</g>
</svg>
